<svg width="0" height="0" class="hidden">
    <symbol xmlns="http://www.w3.org/2000/svg" viewBox="-48 0 480 480" id="tags">
        <path d="M248 8h64c35.348 0 64 28.652 64 64v128H248zm0 0" fill="#d46b00"></path>
        <path d="M72 8C36.652 8 8 36.652 8 72v400l120-160 120 160V72c0-35.348 28.652-64 64-64zm0 0" fill="#ff8400"></path>
        <path d="M172.258 230.633l-44.496-24.594-44.496 24.594 8.496-52.098-36-36.894 49.75-7.602 22.25-47.406 22.246 47.406 49.754 7.602-36 36.894zm0 0" fill="#fafa55"></path>
        <path d="M384 200V72c-.043-39.746-32.254-71.957-72-72H72C32.254.043.043 32.254 0 72v400a8 8 0 0014.398 4.8L128 325.337 241.602 476.8A8 8 0 00256 472V207.999h120a8 8 0 008-8zM240 448L134.398 307.2a7.998 7.998 0 00-12.796 0L16 448V72c.035-30.914 25.086-55.965 56-56h194.793A71.91 71.91 0 00240 72zm128-256H256V72c0-30.93 25.07-56 56-56s56 25.07 56 56zm0 0"></path>
        <path d="M200.969 133.734l-45.528-6.957L135 83.2a8.002 8.002 0 00-14.488 0l-20.434 43.578-45.527 6.957a8.008 8.008 0 00-6.371 5.368 7.994 7.994 0 001.851 8.12L83.2 181.23l-7.84 48.114a8.007 8.007 0 003.309 7.808 8.01 8.01 0 008.469.45l40.625-22.403 40.62 22.403a8.005 8.005 0 008.481-.461 8.005 8.005 0 003.29-7.828l-7.848-48.114 33.183-34a8.003 8.003 0 00-4.52-13.488zm-42.938 39.203a8 8 0 00-2.168 6.88l5.848 35.831-30.078-16.625a8.007 8.007 0 00-7.746 0l-30.078 16.625 5.847-35.832a8 8 0 00-2.168-6.879L72.352 147.2l34.402-5.246a8.012 8.012 0 006.031-4.504l15.008-32 15.008 32a8 8 0 006.031 4.504l34.367 5.246zm0 0"></path>
    </symbol>
    <symbol xmlns="http://www.w3.org/2000/svg" viewBox="0 0 504.5 504.5" id="price-tag">
        <path d="M242 104.5l-73.032 35.573a31.612 31.612 0 00-14.74 15.51l-91.11 228.401c-9.418 21.331.188 46.265 21.458 55.688l90.623 40.156H242.5z" fill="#faa515"></path>
        <path d="M445 415.5v44c0 24.496-20.494 45-45 45H215c-24.506 0-44-20.504-44-45v-259c0-7.726 2.19-15.051 7.109-21.01l55.623-67.394C240.053 104.436 249.066 99.5 259 99.5h97c9.934 0 18.947 4.936 25.269 12.596l55.623 67.394c4.918 5.959 8.109 13.285 8.109 21.01v215z" fill="#fad207"></path>
        <path d="M292.431 275.013l.001-.011-.258-.258a26.803 26.803 0 00-.413-.413l-10.346-10.352-1.468 2.923A32.352 32.352 0 00269 265h-1c-17.921 0-32.5 14.58-32.5 32.5 0 3.712.634 7.276 1.785 10.602l-3.038 1.558 10.714 10.738.135.136.144.144.005-.003C251.111 326.437 259.146 330 268 330h1c17.921 0 32.5-14.58 32.5-32.5 0-8.721-3.459-16.644-9.069-22.487zM269 315h-1c-9.649 0-17.5-7.851-17.5-17.5S258.351 280 268 280h1c9.649 0 17.5 7.851 17.5 17.5S278.649 315 269 315zm117.304-46.803l-10-10-138.608 138.606 10 10c1.465 1.464 3.385 2.197 5.304 2.197s3.839-.732 5.304-2.197l128-128a7.501 7.501 0 000-10.606zm1.967 83.762l.009-.004-8.273-8.388.536 3.401A32.293 32.293 0 00367 344h-1c-17.921 0-32.5 14.58-32.5 32.5 0 4.631.98 9.036 2.734 13.027l-3.672-.535 9.952 9.938c.355.372.719.735 1.092 1.09l.228.228.002-.008c5.81 5.427 13.603 8.76 22.164 8.76h1c17.921 0 32.5-14.58 32.5-32.5 0-9.791-4.358-18.577-11.229-24.541zM367 394h-1c-9.649 0-17.5-7.851-17.5-17.5S356.351 359 366 359h1c9.649 0 17.5 7.851 17.5 17.5S376.649 394 367 394z" clip-rule="evenodd" fill="#f8c201" fill-rule="evenodd"></path>
        <path d="M243 399a7.5 7.5 0 01-5.304-12.803l128-128a7.5 7.5 0 0110.607 10.606l-128 128A7.474 7.474 0 01243 399zm16-79h-1c-17.921 0-32.5-14.58-32.5-32.5S240.079 255 258 255h1c17.921 0 32.5 14.58 32.5 32.5S276.921 320 259 320zm-1-50c-9.649 0-17.5 7.851-17.5 17.5S248.351 305 258 305h1c9.649 0 17.5-7.851 17.5-17.5S268.649 270 259 270zm99 129h-1c-17.921 0-32.5-14.58-32.5-32.5S338.079 334 356 334h1c17.921 0 32.5 14.58 32.5 32.5S374.921 399 357 399zm-1-50c-9.649 0-17.5 7.851-17.5 17.5S346.351 384 356 384h1c9.649 0 17.5-7.851 17.5-17.5S366.649 349 357 349z" fill="#f5f5f5"></path>
        <path d="M323.8 160.493a7.5 7.5 0 01-2.08-14.707 56.44 56.44 0 002.545-.802c22.87-7.807 38.235-29.301 38.235-53.485v-84a7.5 7.5 0 0115 0v84c0 30.602-19.446 57.8-48.39 67.68a72.109 72.109 0 01-3.223 1.016 7.47 7.47 0 01-2.087.298z" fill="#e0a446"></path>
        <path d="M308 179c-12.958 0-23.5-10.542-23.5-23.5S295.042 132 308 132s23.5 10.542 23.5 23.5S320.958 179 308 179z" fill="#f5f5f5"></path>
    </symbol>

</svg>